
<svg width="319px" height="471px" viewBox="0 0 319 471" version="1.1" xmlns="http://www.w3.org/2000/svg" xmlns:xlink="http://www.w3.org/1999/xlink">
    <!-- Generator: Sketch 45.2 (43514) - http://www.bohemiancoding.com/sketch -->
    <desc>Created with Sketch.</desc>
    <defs></defs>
    <g id="Symbols" stroke="none" stroke-width="1" fill="none" fill-rule="evenodd">
        <g id="Logo/Futura-593E68" transform="translate(-6.000000, -56.000000)">
            <g transform="translate(0.000000, 11.000000)">
                <text id="T" opacity="0.9" font-family="Futura-Medium, Futura" font-size="160" font-weight="400" letter-spacing="0.480000019" fill="#593E68">
                    <tspan x="95.66625" y="166">T</tspan>
                </text>
                <text id="h" opacity="0.9" font-family="Futura-Medium, Futura" font-size="123.6" font-weight="400" letter-spacing="0.533952014" fill="#593E68">
                    <tspan x="145.845622" y="192">h</tspan>
                </text>
                <text id="e" opacity="0.9" font-family="Futura-Medium, Futura" font-size="123.6" font-weight="400" letter-spacing="0.533952014" fill="#593E68">
                    <tspan x="204.543864" y="207">e</tspan>
                </text>
                <text id="G" opacity="0.9" font-family="Futura-Medium, Futura" font-size="130" font-weight="400" letter-spacing="0.518400013" fill="#593E68">
                    <tspan x="0.492264837" y="260">G</tspan>
                </text>
                <text id="r" opacity="0.9" font-family="Futura-Medium, Futura" font-size="130" font-weight="400" letter-spacing="0.518400013" fill="#593E68">
                    <tspan x="98.4292766" y="271">r</tspan>
                </text>
                <text id="a" opacity="0.9" font-family="Futura-Medium, Futura" font-size="130" font-weight="400" letter-spacing="0.518400013" fill="#593E68">
                    <tspan x="129.766191" y="283">a</tspan>
                </text>
                <text id="p" opacity="0.9" font-family="Futura-Medium, Futura" font-size="130" font-weight="400" letter-spacing="0.518400013" fill="#593E68">
                    <tspan x="194.266191" y="287">p</tspan>
                </text>
                <text id="e" opacity="0.9" font-family="Futura-Medium, Futura" font-size="130" font-weight="400" letter-spacing="0.518400013" fill="#593E68">
                    <tspan x="259.781327" y="263">e</tspan>
                </text>
                <text id="A" opacity="0.9" font-family="Futura-Medium, Futura" font-size="130" font-weight="400" letter-spacing="0.389999986" fill="#593E68">
                    <tspan x="59.6580274" y="380">A</tspan>
                </text>
                <text id="p" opacity="0.9" font-family="Futura-Medium, Futura" font-size="120" font-weight="400" letter-spacing="0.389999986" fill="#593E68">
                    <tspan x="144.828438" y="379">p</tspan>
                </text>
                <text id="p" opacity="0.9" font-family="Futura-Medium, Futura" font-size="120" font-weight="400" letter-spacing="0.389999986" fill="#593E68">
                    <tspan x="212.828438" y="370">p</tspan>
                </text>
                <path d="M105.89827,366.455462 C95.2175044,372.448408 88,383.881335 88,397 C88,416.329966 103.670034,432 123,432 L123,432 C129.619426,432 135.809659,430.162411 141.088404,426.96953" id="Oval" stroke="#593E68" stroke-width="4"></path>
                <path d="M49.1477815,267.385915 C42.289239,273.775515 38,282.886855 38,293 C38,312.329966 53.6700338,328 73,328 L73,328 C77.2889875,328 81.3977893,327.228533 85.1952101,325.816794" id="Oval" stroke="#593E68" stroke-width="4"></path>
                <path d="M116.726223,436.872661 C116.250149,439.173866 116,441.55772 116,444 C116,463.329966 131.670034,479 151,479 C166.541536,479 179.717158,468.870323 184.284704,454.853133" id="Oval" stroke="#593E68" stroke-width="4"></path>
                <path d="M181.886707,412.621596 C178.168298,418.180985 176,424.864994 176,432.055437 C176,451.385403 191.670034,467.055437 211,467.055437 L211,467.055437 C230.329966,467.055437 246,451.385403 246,432.055437 C246,420.573055 240.47068,410.382115 231.929424,404" id="Oval" stroke="#593E68" stroke-width="4"></path>
                <path d="M254.886707,283.621596 C251.168298,289.180985 249,295.864994 249,303.055437 M284,338.055437 C303.329966,338.055437 319,322.385403 319,303.055437 C319,293.464789 315.142521,284.775104 308.894451,278.453271" id="Oval-Copy" stroke="#593E68" stroke-width="4"></path>
                <path d="M149.636404,485.678315 C152.753854,501.813994 166.95383,514 184,514 C203.329966,514 219,498.329966 219,479 C219,477.041359 218.839114,475.120294 218.529837,473.249301" id="Oval" stroke="#593E68" stroke-width="4"></path>
            </g>
        </g>
    </g>
</svg>
