<svg width="57px" height="57px" viewBox="0 0 57 57" version="1.1" xmlns="http://www.w3.org/2000/svg" xmlns:xlink="http://www.w3.org/1999/xlink">
    <!-- Generator: Sketch 45.2 (43514) - http://www.bohemiancoding.com/sketch -->
    <desc>Created with Sketch.</desc>
    <defs>
        <rect id="path-1" x="10.1315789" y="16.4653911" width="34.7368421" height="24.0609247" rx="3.456"></rect>
        <rect id="path-2" x="1.73684211" y="1.71875" width="1.73684211" height="1.71875"></rect>
        <rect id="path-3" x="0" y="0" width="5.21052632" height="1.71875" rx="0.859375"></rect>
        <ellipse id="path-4" cx="10.4210526" cy="10.3125" rx="10.4210526" ry="10.3125"></ellipse>
        <ellipse id="path-5" cx="10.4071571" cy="10.255214" rx="7.40715707" ry="7.32999918"></ellipse>
        <path d="M23.4524326,13.0263158 L31.6844362,13.0263158 L31.6844362,13.0263158 C32.3437576,13.0263158 32.9456193,13.4015017 33.2359201,13.993473 L34.4473684,16.4638158 L20.5526316,16.4638158 L21.9351784,13.9273189 L21.9351784,13.9273189 C22.2379029,13.3719238 22.8198933,13.0263158 23.4524326,13.0263158 Z" id="path-6"></path>
        <rect id="path-7" x="36.1842105" y="14.7450658" width="5.21052632" height="1.71875"></rect>
    </defs>
    <g id="Symbols" stroke="none" stroke-width="1" fill="none" fill-rule="evenodd">
        <g id="Icon/CameraButton" transform="translate(1.000000, 1.000000)">
            <g>
                <circle id="Oval-3" stroke="#979797" stroke-width="1.44" fill="#FFFFFF" cx="27.5" cy="27.5" r="27.5"></circle>
                <g id="camBody">
                    <use fill="#979797" fill-rule="evenodd" xlink:href="#path-1"></use>
                    <rect stroke="#979797" stroke-width="1.728" x="10.9955789" y="17.3293911" width="33.0088421" height="22.3329247" rx="3.456"></rect>
                </g>
                <g id="camShutterButton" transform="translate(13.605263, 13.026316)">
                    <g id="Rectangle-5">
                        <use fill="#D8D8D8" fill-rule="evenodd" xlink:href="#path-2"></use>
                        <rect stroke="#979797" stroke-width="1.728" x="2.60084211" y="2.58275" width="1" height="1"></rect>
                    </g>
                    <g id="Rectangle-6">
                        <use fill="#D8D8D8" fill-rule="evenodd" xlink:href="#path-3"></use>
                        <rect stroke="#979797" stroke-width="1.728" x="0.864" y="0.864" width="3.48252632" height="1" rx="0.5"></rect>
                    </g>
                </g>
                <g id="camLens" transform="translate(17.078947, 18.182566)">
                    <g id="Oval-4">
                        <use fill="#FFFFFF" fill-rule="evenodd" xlink:href="#path-4"></use>
                        <ellipse stroke="#979797" stroke-width="1.728" cx="10.4210526" cy="10.3125" rx="9.55705263" ry="9.4485"></ellipse>
                    </g>
                    <g id="Oval-2">
                        <use fill="#979797" fill-rule="evenodd" xlink:href="#path-5"></use>
                        <ellipse stroke="#979797" stroke-width="1.728" cx="10.4071571" cy="10.255214" rx="6.54315707" ry="6.46599918"></ellipse>
                    </g>
                </g>
                <g id="camViewFinder">
                    <use fill="#D8D8D8" fill-rule="evenodd" xlink:href="#path-6"></use>
                    <path stroke="#979797" stroke-width="1.728" d="M22.0075739,15.5998158 L33.0613662,15.5998158 L32.4601782,14.3738944 C32.3150278,14.0779087 32.0140969,13.8903158 31.6844362,13.8903158 L23.4524326,13.8903158 C23.1361629,13.8903158 22.8451677,14.0631198 22.6938055,14.3408174 L22.0075739,15.5998158 Z"></path>
                </g>
                <g id="camFilmRewinder">
                    <use fill="#D8D8D8" fill-rule="evenodd" xlink:href="#path-7"></use>
                    <rect stroke="#979797" stroke-width="1.728" x="37.0482105" y="15.6090658" width="3.48252632" height="1"></rect>
                </g>
            </g>
        </g>
    </g>
</svg>
