
<svg width="88px" height="130px" viewBox="0 0 88 130" version="1.1" xmlns="http://www.w3.org/2000/svg" xmlns:xlink="http://www.w3.org/1999/xlink">
    <!-- Generator: Sketch 45.2 (43514) - http://www.bohemiancoding.com/sketch -->
    <desc>Created with Sketch.</desc>
    <defs></defs>
    <g id="Symbols" stroke="none" stroke-width="1" fill="none" fill-rule="evenodd">
        <g id="Logo/verySmallFutura-593E68-v2" transform="translate(-1.000000, -12.000000)">
            <g id="Logo/Futura-593E68">
                <text id="T" opacity="0.9" font-family="Futura-Medium, Futura" font-size="43.776" font-weight="400" letter-spacing="0.131328009" fill="#593E68">
                    <tspan x="26.721486" y="45">T</tspan>
                </text>
                <text id="h" opacity="0.9" font-family="Futura-Medium, Futura" font-size="33.81696" font-weight="400" letter-spacing="0.146089271" fill="#593E68">
                    <tspan x="40.4505621" y="52.5104">h</tspan>
                </text>
                <text id="e" opacity="0.9" font-family="Futura-Medium, Futura" font-size="33.81696" font-weight="400" letter-spacing="0.146089271" fill="#593E68">
                    <tspan x="56.5104011" y="56.6144">e</tspan>
                </text>
                <text id="G" opacity="0.9" font-family="Futura-Medium, Futura" font-size="35.568" font-weight="400" letter-spacing="0.141834244" fill="#593E68">
                    <tspan x="0.681883659" y="71.2">G</tspan>
                </text>
                <text id="r" opacity="0.9" font-family="Futura-Medium, Futura" font-size="35.568" font-weight="400" letter-spacing="0.141834244" fill="#593E68">
                    <tspan x="27.2038501" y="74.2096">r</tspan>
                </text>
                <text id="a" opacity="0.9" font-family="Futura-Medium, Futura" font-size="35.568" font-weight="400" letter-spacing="0.141834244" fill="#593E68">
                    <tspan x="35.7776298" y="77.4928">a</tspan>
                </text>
                <text id="p" opacity="0.9" font-family="Futura-Medium, Futura" font-size="35.568" font-weight="400" letter-spacing="0.141834244" fill="#593E68">
                    <tspan x="53.4248298" y="78.5872">p</tspan>
                </text>
                <text id="e" opacity="0.9" font-family="Futura-Medium, Futura" font-size="35.568" font-weight="400" letter-spacing="0.141834244" fill="#593E68">
                    <tspan x="71.3497712" y="72.0208">e</tspan>
                </text>
                <text id="A" opacity="0.9" font-family="Futura-Medium, Futura" font-size="35.568" font-weight="400" letter-spacing="0.106703991" fill="#593E68">
                    <tspan x="16.5960363" y="104.032">A</tspan>
                </text>
                <text id="p" opacity="0.9" font-family="Futura-Medium, Futura" font-size="32.832" font-weight="400" letter-spacing="0.106703991" fill="#593E68">
                    <tspan x="39.8986605" y="103.4944">p</tspan>
                </text>
                <text id="p" opacity="0.9" font-family="Futura-Medium, Futura" font-size="32.832" font-weight="400" letter-spacing="0.106703991" fill="#593E68">
                    <tspan x="58.5034605" y="101.032">p</tspan>
                </text>
                <path d="M29.2473668,100.262214 C26.3251092,101.901884 24.3504,105.029933 24.3504,108.6192 C24.3504,113.907879 28.6377212,118.1952 33.9264,118.1952 L33.9264,118.1952 C35.7374748,118.1952 37.4311228,117.692436 38.8753874,116.818863" id="Oval" stroke="#593E68" stroke-width="1.0944"></path>
                <path d="M13.720433,73.1567865 C11.8439358,74.9049808 10.6704,77.3978434 10.6704,80.1648 C10.6704,85.4534788 14.9577212,89.7408 20.2464,89.7408 L20.2464,89.7408 C21.419867,89.7408 22.5440351,89.5297267 23.5830095,89.1434749" id="Oval" stroke="#593E68" stroke-width="1.0944"></path>
                <path d="M32.2098946,119.52836 C32.0796407,120.15797 32.0112,120.810192 32.0112,121.4784 C32.0112,126.767079 36.2985212,131.0544 41.5872,131.0544 C45.8393641,131.0544 49.4442145,128.28292 50.6938951,124.447817" id="Oval" stroke="#593E68" stroke-width="1.0944"></path>
                <path d="M50.037803,112.893269 C49.0204464,114.414317 48.4272,116.243062 48.4272,118.210367 C48.4272,123.499046 52.7145212,127.786367 58.0032,127.786367 L58.0032,127.786367 C63.2918788,127.786367 67.5792,123.499046 67.5792,118.210367 C67.5792,115.068788 66.0663781,112.280547 63.7294904,110.5344" id="Oval" stroke="#593E68" stroke-width="1.0944"></path>
                <path d="M70.010603,77.5988686 C68.9932464,79.1199174 68.4,80.9486624 68.4,82.9159675 M77.976,92.4919675 C83.2646788,92.4919675 87.552,88.2046462 87.552,82.9159675 C87.552,80.2919663 86.4965937,77.9144685 84.7871218,76.1848149" id="Oval-Copy" stroke="#593E68" stroke-width="1.0944"></path>
                <path d="M41.2141201,132.881587 C42.0670545,137.296309 45.9521679,140.6304 50.616,140.6304 C55.9046788,140.6304 60.192,136.343079 60.192,131.0544 C60.192,130.518516 60.1479817,129.992912 60.0633635,129.481009" id="Oval" stroke="#593E68" stroke-width="1.0944"></path>
            </g>
        </g>
    </g>
</svg>
