<svg width="26px" height="24px" viewBox="0 0 26 24" version="1.1" xmlns="http://www.w3.org/2000/svg" xmlns:xlink="http://www.w3.org/1999/xlink">
    <!-- Generator: Sketch 45.2 (43514) - http://www.bohemiancoding.com/sketch -->
    <desc>Created with Sketch.</desc>
    <defs></defs>
    <g id="Symbols" stroke="none" stroke-width="1" fill="none" fill-rule="evenodd">
        <g id="iconSC/profileNotSelected" transform="translate(0.000000, -2.000000)" stroke="#FFFFFF">
            <g id="profileNotSelected" transform="translate(0.000000, 2.000000)">
                <path d="M24.7999992,23.5 L0.5,23.5 C0.614379879,22.1610966 0.783129874,21.1610966 1.00624998,20.5 C1.68124996,18.5 4.38124988,16.5 9.10624973,14.5 C10.2874997,15.5 11.4687497,16 12.6499996,16 C13.8312496,16 15.0124995,15.5 16.1937495,14.5 C20.9187494,16.5 23.6187493,18.5 24.2937493,20.5 C24.5209024,21.1730464 24.6896524,22.1730464 24.7999992,23.5 Z" id="Path-34"></path>
                <path d="M12.5547847,13.5 C14.7274984,13.5 16.9080939,10.5898509 17.4252812,7 C17.9424684,3.41014913 15.7197865,0.5 12.4607822,0.5 C9.20177788,0.5 7.02118231,3.41014913 7.59028569,7 C8.15938907,10.5898509 10.382071,13.5 12.5547847,13.5 Z" id="Oval-8"></path>
            </g>
        </g>
    </g>
</svg>
